# xmcd
#
# Track frame offsets:
#	150
#	14307
#	34417
#	52166
#	65702
#	81011
#	96661
#	115209
#	133133
#	156936
#
# Disc length: 2287 seconds
#
# Revision: 1
# Processed by: cddbd v1.5.2PL0 Copyright (c) Steve Scherf et al.
# Submitted via: audiograbber 1.83.01
#
DISCID=9208ed0a
DTITLE=Juice - Juice CD-Nr. 134
DYEAR=2016
DGENRE=Rap
TTITLE0=Audio88 and Yassin feat. NICO K.I.Z. - Hallelujah
TTITLE1=Trettmann feat. Haiyiti - 120 Jahre
TTITLE2=MC Bomber - Feiern und Ficken
TTITLE3=Chakuza - Noah
TTITLE4=Haze - Dunkelheit
TTITLE5=MHD - La Moula
TTITLE6=Masta Ace feat. LT - Labyrinth
TTITLE7=Black Violin feat Pharaohe Monch - Invisible
TTITLE8=Team Avantgarde feat. Abroo , Boba Fett , Gris , Meyah Don , Justus Jon
TTITLE8=as - Possee
TTITLE9=Laca feat. Robanzee - Tropical Dole
EXTD=
EXTT0=
EXTT1=
EXTT2=
EXTT3=
EXTT4=
EXTT5=
EXTT6=
EXTT7=
EXTT8=
EXTT9=
PLAYORDER=
